<svg version="1.1" id="Layer_1" xmlns="http://www.w3.org/2000/svg" xmlns:xlink="http://www.w3.org/1999/xlink" x="0px" y="0px"
	 width="100%" viewBox="0 0 800 450" enable-background="new 0 0 800 450" xml:space="preserve">
<path fill="#82699D" opacity="1.000000" stroke="none" 
	d="
M525.000000,451.000000 
	C457.312439,451.000000 389.624878,451.000000 321.413330,450.641632 
	C316.304871,439.104523 311.510437,428.006287 307.188019,416.727142 
	C301.504181,401.895416 296.434875,386.825989 290.636230,372.041138 
	C286.610260,361.776184 284.064087,351.054810 278.039124,341.367645 
	C272.428619,332.346893 268.288574,322.063782 265.363831,311.805328 
	C261.394318,297.882233 260.735596,283.314728 260.968567,268.787048 
	C261.056366,263.311584 258.636444,260.728760 253.052704,261.111847 
	C240.575241,261.967926 229.235901,257.895081 219.141541,251.715256 
	C205.145767,243.146973 193.625473,231.694016 187.534821,215.774628 
	C186.959000,214.269592 185.498062,212.733109 184.048874,211.994659 
	C176.701294,208.250641 169.455032,204.111969 161.729538,201.355103 
	C152.108109,197.921707 142.436798,194.781662 132.012253,193.493210 
	C120.326859,192.048935 108.830315,188.431366 97.513313,184.916687 
	C91.609253,183.083115 86.306541,179.358231 80.664581,176.627319 
	C63.209621,168.178421 46.196312,158.819870 31.405132,146.283920 
	C22.334433,138.596252 13.612135,132.021606 1.000000,134.000000 
	C1.000000,117.979103 1.000000,101.958214 1.386361,85.431992 
	C8.093719,88.121086 15.465668,90.183640 20.453009,94.814415 
	C25.916292,99.887108 32.054417,101.263527 38.516636,103.090446 
	C45.478313,105.058571 52.380341,107.263519 59.229855,109.595795 
	C67.187622,112.305435 74.860840,116.262833 83.014549,117.891838 
	C96.459282,120.577927 110.144630,122.375000 123.814507,123.527611 
	C136.774582,124.620377 148.200165,129.401108 159.231949,135.594284 
	C167.885788,140.452484 176.053558,147.067032 186.820755,144.961761 
	C204.880524,141.430618 221.104431,147.664352 237.452255,153.603424 
	C251.028488,158.535568 264.195190,165.802002 279.482788,160.841644 
	C280.087128,160.645554 280.807617,160.802872 281.473969,160.803024 
	C291.136566,160.805176 300.799896,160.738800 310.461365,160.845398 
	C314.447845,160.889389 318.618774,160.626709 322.381378,161.671677 
	C337.396179,165.841629 351.239166,172.286392 362.501099,183.546692 
	C364.301117,185.346436 367.473633,187.026688 369.809265,186.787308 
	C375.368805,186.217499 380.880341,184.710739 386.268158,183.102966 
	C389.714142,182.074677 389.829742,179.114746 387.177948,176.692093 
	C382.819214,172.709976 381.254639,166.228500 375.766571,163.199463 
	C376.032288,160.854828 376.265320,158.735275 375.913391,156.717758 
	C375.627625,155.079529 374.639771,153.563782 373.937744,151.628510 
	C375.847046,146.585007 377.781891,141.906708 380.109863,137.159195 
	C384.251190,134.880859 387.251740,127.248764 385.790649,122.554718 
	C385.329773,121.074005 383.527069,120.010948 382.338501,118.756744 
	C381.143158,123.203995 386.402191,127.365341 380.058289,129.707611 
	C379.221924,127.841202 378.453827,126.321709 377.572815,124.370163 
	C377.234161,120.040916 377.008423,116.143723 376.846497,111.856743 
	C375.840729,110.072342 374.771240,108.677727 373.308044,107.267303 
	C369.976196,107.764740 367.037994,108.277985 364.041260,108.510216 
	C363.409729,107.780182 362.836761,107.331161 362.210449,106.596901 
	C362.331970,105.776802 362.506805,105.241951 363.020142,104.758865 
	C363.914185,104.222427 364.469727,103.634247 365.285431,102.879005 
	C366.369659,102.181625 367.193665,101.651299 368.200073,101.316422 
	C368.952820,101.059547 369.523163,100.607224 370.281677,99.895508 
	C371.292114,99.409218 372.114410,99.182320 373.299438,98.931686 
	C374.929596,97.941719 376.081268,96.736671 377.486786,96.055252 
	C381.284393,94.214127 385.542969,93.104454 388.949921,90.740738 
	C392.123444,88.538956 394.436310,85.096634 397.356873,81.922058 
	C397.875793,80.484398 398.165955,79.325104 398.747864,78.033737 
	C399.352570,76.924393 399.665436,75.947121 400.035034,74.753227 
	C400.091736,74.536613 400.270081,74.125809 400.590881,74.046516 
	C401.898163,72.592216 402.884613,71.217209 403.958435,69.548218 
	C404.716217,68.516068 405.386597,67.777893 406.394653,67.006958 
	C407.825287,65.653984 408.918243,64.333771 410.136475,62.807159 
	C410.469025,62.345970 410.722504,62.151234 411.367188,61.983330 
	C412.515533,60.698051 413.318787,59.445992 414.319275,58.030628 
	C414.743835,57.613167 414.971161,57.359013 415.510101,57.045776 
	C416.583130,56.057945 417.344513,55.129200 418.348511,53.967758 
	C421.737213,51.163872 424.883270,48.592678 428.401855,46.019897 
	C430.534515,45.047562 432.294586,44.076809 434.325226,43.024384 
	C434.964844,42.867775 435.333923,42.792831 436.188477,42.812675 
	C445.771606,42.936462 454.870270,43.037983 463.966003,42.917667 
	C465.359070,42.899239 466.738647,41.857014 468.441650,41.187908 
	C469.413147,40.970886 470.067474,40.854256 471.153442,40.852051 
	C472.468628,40.907021 473.352203,40.847565 474.532227,40.874397 
	C475.653290,41.865040 476.477905,42.769398 477.239166,44.050941 
	C480.218506,45.856968 483.261200,47.285805 486.476013,48.790016 
	C486.648102,48.865391 486.940582,49.101269 486.997803,49.431221 
	C489.032928,50.529118 491.010864,51.297058 493.287750,52.131798 
	C494.451660,53.060097 495.316620,53.921593 496.149780,55.121788 
	C496.744202,55.974594 497.370483,56.488701 498.143005,57.189384 
	C498.500031,57.613693 498.735229,57.824047 499.026978,58.351547 
	C500.422394,59.758694 501.785736,60.821304 503.364380,62.085190 
	C504.143921,63.091278 504.708191,63.896103 505.211731,65.060768 
	C506.434235,66.614937 507.717499,67.809265 509.109955,69.150253 
	C509.219177,69.296913 509.362000,69.633614 509.282654,69.971527 
	C509.774902,70.888268 510.346497,71.467102 511.071716,72.348877 
	C511.952362,74.302864 512.679443,75.953911 513.313599,78.009956 
	C513.840698,81.406883 514.392761,84.415276 515.112122,87.383133 
	C515.427307,88.683586 516.084045,89.901245 516.661499,91.507797 
	C516.838684,92.570671 516.940125,93.282249 516.771240,94.255447 
	C516.646057,96.676064 516.791138,98.835045 516.942871,101.425323 
	C516.847290,103.857056 516.745056,105.857491 516.335022,107.984398 
	C515.098999,110.496498 514.170837,112.882141 513.198120,115.597580 
	C513.010132,116.576782 512.866760,117.226189 512.416443,117.971466 
	C511.820435,118.801567 511.531433,119.535774 511.127014,120.592705 
	C511.072296,122.531631 511.133026,124.147842 511.160461,126.118042 
	C512.080933,127.318092 513.034607,128.164139 513.994141,129.005096 
	C514.000000,129.000000 513.990234,129.011642 514.023193,129.357727 
	C516.385193,131.456406 518.714233,133.208984 521.284424,134.979218 
	C521.525635,134.996887 522.004517,135.064819 522.176941,135.417236 
	C522.398132,140.362152 524.493591,144.034668 527.404236,147.647919 
	C527.132019,149.012054 526.981628,150.014252 526.624390,151.206207 
	C526.276062,152.915161 526.134583,154.434387 525.995117,155.979645 
	C525.997192,156.005676 525.947754,155.988861 525.614319,156.028839 
	C525.001648,156.578537 524.354675,157.255585 524.498962,157.572647 
	C526.343628,161.626587 527.135010,165.589813 524.482910,169.679321 
	C524.262207,170.019547 525.396667,171.238602 525.990173,172.313110 
	C526.164917,172.937531 526.251099,173.298172 526.245239,174.083069 
	C525.436218,176.662430 524.719299,178.817520 523.621582,180.909088 
	C522.471741,180.784470 521.702820,180.723373 520.697021,180.486908 
	C515.876770,182.726440 515.522156,183.520844 518.064026,186.249634 
	C518.452515,186.697067 518.670532,186.956161 518.946289,187.511002 
	C519.626526,188.234177 520.249084,188.661621 520.910583,189.070068 
	C520.949524,189.051071 520.911621,189.128983 520.962708,189.437561 
	C521.656311,190.177689 522.298889,190.609222 523.180786,191.178452 
	C523.696411,191.784149 523.972595,192.252136 524.205688,193.130722 
	C524.488403,195.152359 524.798218,196.766815 525.143188,198.373734 
	C525.922485,202.004181 527.718689,203.228363 531.292908,200.781494 
	C531.933472,200.714432 532.300659,200.686371 533.029785,200.762390 
	C534.992859,200.134796 536.593933,199.403122 538.495972,198.564972 
	C539.218872,198.416046 539.640747,198.373596 540.395508,198.556778 
	C546.463196,198.827438 552.200134,198.986664 557.932068,198.880264 
	C562.287170,198.799438 566.635925,198.380768 571.346558,198.149918 
	C572.400330,198.372925 573.095154,198.558411 573.914673,198.980713 
	C575.020325,199.516754 576.001343,199.815964 577.292664,200.168777 
	C578.000305,200.354904 578.397583,200.487442 578.930908,200.906067 
	C581.707581,202.165268 584.348267,203.138351 587.394653,204.116394 
	C589.141418,204.239120 590.482544,204.356888 591.937134,204.777252 
	C593.698120,205.410522 595.345459,205.741196 597.350891,206.087006 
	C598.413025,206.226013 599.117188,206.349869 599.919312,206.767517 
	C601.340698,207.409531 602.664124,207.757736 604.306274,208.123871 
	C605.380859,208.495911 606.136719,208.850006 606.935303,209.473068 
	C607.649475,209.851807 608.320923,209.961594 609.307983,210.084732 
	C610.036377,210.178009 610.449158,210.257965 610.976624,210.650116 
	C616.025452,212.461868 618.921692,209.018295 622.459961,206.314178 
	C623.176697,206.176758 623.591370,206.124893 624.322205,206.331390 
	C629.090637,206.410614 633.542969,206.231445 638.440430,206.088501 
	C641.539368,206.221237 644.193176,206.317749 646.984253,206.719345 
	C649.813782,207.960587 652.506165,208.896729 655.479492,209.901016 
	C656.121094,210.105118 656.481567,210.241074 656.929138,210.694305 
	C658.313904,211.700073 659.611694,212.388580 660.952698,213.053818 
	C660.995972,213.030563 660.927246,213.101013 660.981262,213.448029 
	C662.144714,214.407181 663.254150,215.019287 664.689575,215.668427 
	C665.655090,215.847336 666.294678,215.989212 667.019897,216.476486 
	C669.157288,217.721802 671.150391,218.886429 673.296265,219.362671 
	C673.952454,219.508301 675.028198,217.763733 675.948975,216.586014 
	C676.083862,215.898300 676.181580,215.509369 676.641724,214.974060 
	C677.057373,206.892487 677.110535,198.957291 677.168152,190.615250 
	C677.356445,188.876358 677.540283,187.544281 678.004272,186.060547 
	C680.391296,180.789459 683.423889,175.828781 684.337097,170.504593 
	C685.198608,165.482315 683.829285,160.077423 683.382202,154.427826 
	C683.229980,152.342255 683.136780,150.669678 683.303955,148.726349 
	C683.950134,145.640305 685.067078,142.640198 681.537231,140.399612 
	C681.352600,138.663666 681.257935,137.319977 681.403564,135.698135 
	C680.320007,130.882339 678.996216,126.344711 677.567505,121.507736 
	C677.384399,120.793350 677.306213,120.378319 677.445068,119.722260 
	C676.534424,117.278877 675.406677,115.076508 674.198425,112.520470 
	C674.088562,111.443214 674.059204,110.719635 674.242188,109.821968 
	C673.997864,109.078064 673.541321,108.508247 673.047241,107.965088 
	C673.009644,107.991737 673.060608,107.915016 673.012573,107.602257 
	C671.973511,107.209335 670.982361,107.129173 669.576599,107.072601 
	C667.777832,107.087509 666.393677,107.078819 664.780762,106.826775 
	C662.331360,107.303528 660.110840,108.023621 657.437622,108.789703 
	C653.033081,108.791672 649.081177,108.747650 645.016113,108.375519 
	C640.000427,104.534256 634.438477,103.950012 629.000854,105.743004 
	C623.288574,107.626518 618.190857,107.901993 613.300171,103.472610 
	C613.481506,101.418549 613.767578,99.724541 614.381958,97.964081 
	C615.060547,97.175034 615.410767,96.452454 615.818970,95.549583 
	C615.876953,95.369286 616.064270,95.040047 616.405396,94.968704 
	C619.438660,91.289490 616.913879,90.053314 613.969116,88.792458 
	C613.886169,88.614548 613.789246,88.234093 613.870850,87.839096 
	C614.499207,85.167755 615.045959,82.891411 615.642700,80.266998 
	C616.276123,78.671608 616.859558,77.424309 617.744812,76.071503 
	C618.640991,74.908508 619.235413,73.851013 619.930054,72.504570 
	C620.458008,71.521309 620.885681,70.826996 621.620728,70.020798 
	C622.280212,68.931580 622.632324,67.954254 623.041382,66.759109 
	C623.098328,66.541298 623.267334,66.123924 623.583862,66.042404 
	C624.961426,64.350540 626.022400,62.740192 627.258911,60.869408 
	C628.550903,59.679916 629.667358,58.750854 631.205200,57.835812 
	C634.528015,57.754375 637.460693,57.352325 640.322998,57.643070 
	C643.706299,57.986748 647.028748,58.928780 650.705078,59.645500 
	C651.685364,59.763947 652.338257,59.848328 653.213013,60.214462 
	C658.042236,62.592972 662.603333,64.800392 667.271729,66.750710 
	C670.869507,68.253792 674.602234,69.433907 678.456787,70.812149 
	C678.638611,70.866669 678.975891,71.041054 679.019043,71.383728 
	C680.444275,72.758728 681.826416,73.791061 683.397461,74.880379 
	C683.586243,74.937355 683.932678,75.125847 684.008972,75.465866 
	C685.816895,76.455200 687.548523,77.104507 689.448547,77.838577 
	C689.616943,77.923347 689.918396,78.149918 689.981812,78.482872 
	C691.101990,79.483078 692.158691,80.150337 693.540100,80.937080 
	C698.645996,85.960121 703.427185,90.863670 708.158630,96.155968 
	C710.606628,102.081352 713.104370,107.617996 715.687256,113.457718 
	C715.820862,114.177055 715.869263,114.593330 715.674438,115.241898 
	C717.221497,119.348015 719.011719,123.221832 720.900879,127.361862 
	C721.079346,127.997932 721.158752,128.367783 721.184448,129.124191 
	C723.650330,134.386230 726.170044,139.261719 728.834717,144.444977 
	C729.643066,146.169495 730.306458,147.586258 730.742737,149.188904 
	C731.309265,150.272141 732.102844,151.169464 733.139771,152.249603 
	C733.717346,153.164246 734.051636,153.896072 734.297119,154.963806 
	C734.764954,155.887314 735.321533,156.474930 735.970337,157.329315 
	C736.138000,157.964447 736.213318,158.332825 736.214355,159.025040 
	C736.658569,159.943390 737.177124,160.537918 737.781494,161.437500 
	C737.903198,162.162811 737.939087,162.583069 737.747559,163.217499 
	C738.867188,166.010727 740.214294,168.589798 741.641479,171.519806 
	C741.757141,172.589340 741.792786,173.307922 741.611694,174.253693 
	C742.095032,176.047699 742.795105,177.614517 743.591431,179.479919 
	C743.750854,180.191132 743.813843,180.603745 743.628540,181.318085 
	C744.063293,186.807175 744.746338,191.994537 745.524414,197.528870 
	C745.720154,198.587311 745.820923,199.298782 745.670166,200.263123 
	C746.668457,207.016724 747.918152,213.517441 749.194336,220.380188 
	C749.446960,222.170868 749.673096,223.599533 749.649109,225.264572 
	C749.876282,226.984314 750.353577,228.467697 750.902405,230.416367 
	C750.948669,240.264542 750.923462,249.647446 750.543945,259.110046 
	C749.462891,260.804138 749.148010,262.890778 747.935486,263.947968 
	C743.578003,267.747253 739.178223,271.611755 734.311523,274.687531 
	C726.498596,279.625427 718.320801,283.989807 710.261597,288.533417 
	C693.950012,297.729706 677.486206,306.666473 659.093567,311.052826 
	C646.587585,314.035278 633.946350,315.230286 621.140930,312.429260 
	C615.673767,311.233490 610.075439,310.590179 604.511536,309.898682 
	C599.761963,309.308380 597.507507,311.724396 597.097595,316.399658 
	C595.755066,331.712616 589.410034,345.075592 580.393982,357.202545 
	C573.276062,366.776367 564.846497,375.465485 558.487305,385.491241 
	C549.549683,399.582184 541.722839,414.406891 533.958618,429.200012 
	C530.323425,436.126038 527.946899,443.712708 525.000000,451.000000 
z"/>
<path fill="#000000" opacity="1.000000" stroke="none" 
	d="
M750.898315,259.030334 
	C750.923462,249.647446 750.948669,240.264542 750.962158,230.000488 
	C750.908447,227.726837 750.866394,226.334351 750.885498,224.480347 
	C750.910522,199.676788 750.874329,175.334732 750.911377,150.529572 
	C750.623596,137.785828 753.106689,125.227165 745.175903,113.908440 
	C742.303711,109.809364 741.849670,104.076134 739.927063,99.233528 
	C738.218994,94.931046 736.154907,90.749763 733.978699,86.658173 
	C731.024231,81.103249 728.357361,75.268997 724.572021,70.314903 
	C720.036377,64.378830 713.997253,60.015064 707.186401,56.482731 
	C699.682556,52.591019 693.009460,47.106312 685.532104,43.152115 
	C680.147034,40.304386 673.868286,39.197437 668.289978,36.652576 
	C659.720459,32.743103 650.717224,30.792175 641.477295,30.129585 
	C636.690491,29.786320 631.914734,30.527433 626.992859,31.599661 
	C618.043274,33.549290 610.278137,36.574627 604.744812,43.863850 
	C599.546814,50.711308 594.195251,57.588898 592.316345,66.310867 
	C591.908386,68.204483 592.331543,70.590881 591.317566,71.981621 
	C588.219666,76.230591 587.756165,80.840187 587.952393,85.824059 
	C588.161926,91.147583 587.765076,96.500023 588.088257,101.812149 
	C588.279785,104.962051 589.280701,108.075951 590.051025,111.172852 
	C590.582458,113.309334 591.227112,115.434135 592.029419,117.482567 
	C593.000488,119.961708 593.536865,123.512756 595.408386,124.570389 
	C601.285583,127.891693 607.469299,131.410828 613.964172,132.718735 
	C622.844604,134.507034 632.119324,134.344940 641.227295,134.987473 
	C642.553650,135.081039 643.892273,135.000351 645.225220,135.000458 
	C652.179321,135.001053 654.732910,137.658981 655.074707,144.588638 
	C655.205078,147.231552 656.489258,149.808289 656.700500,152.458786 
	C656.974915,155.901642 657.158081,159.470184 656.549561,162.834335 
	C655.827820,166.824448 653.541504,170.592850 653.180237,174.570618 
	C652.772644,179.058456 650.823853,180.088806 646.844788,180.049103 
	C633.683228,179.917709 620.516296,180.163620 607.358765,179.899414 
	C603.419067,179.820328 599.423401,178.827820 595.597351,177.745010 
	C591.016968,176.448700 586.702454,173.844711 582.073730,173.167297 
	C573.552246,171.920197 564.885376,171.665054 556.278564,171.004181 
	C555.781555,170.966019 555.110413,171.202667 554.810242,170.957062 
	C553.804443,170.134079 552.212280,169.218170 552.117554,168.217438 
	C551.258118,159.129303 551.086365,149.958923 549.860840,140.928329 
	C548.970276,134.366547 546.739929,127.991714 545.205627,121.510147 
	C544.364868,117.958008 543.426514,114.388321 543.056946,110.772903 
	C541.942322,99.868423 545.003296,88.741768 541.067078,77.940125 
	C539.344177,73.212090 538.846436,68.004654 536.877991,63.406322 
	C533.545471,55.621532 530.011658,47.745525 523.842896,41.710865 
	C519.489075,37.451653 514.608337,33.693726 509.731171,30.019428 
	C506.276947,27.417126 502.545044,25.123955 498.728119,23.083818 
	C496.255829,21.762390 493.265015,21.426590 490.754333,20.158504 
	C484.371246,16.934555 477.819397,14.840214 470.547028,14.953041 
	C459.219727,15.128778 447.882904,14.810133 436.560089,15.096061 
	C432.245911,15.205003 427.943176,16.324181 423.673981,17.176826 
	C422.845428,17.342306 422.248352,18.480972 421.451569,19.037739 
	C420.416840,19.760801 419.355408,20.735092 418.190674,20.936073 
	C410.293427,22.298828 405.010101,28.066942 399.205780,32.624111 
	C394.929291,35.981747 391.977539,40.998802 388.307343,45.163536 
	C383.670441,50.425339 378.473419,55.228939 375.534271,61.808918 
	C374.940033,63.139141 374.138672,64.700058 372.977844,65.398125 
	C367.897919,68.453018 362.073944,70.318375 358.006348,74.971344 
	C357.931641,75.056816 357.639526,74.926682 357.524841,75.006432 
	C354.360199,77.207031 350.190338,78.773026 348.270905,81.776115 
	C344.807526,87.194710 341.583954,93.239349 340.266388,99.448242 
	C338.182892,109.266441 341.148956,119.013145 348.014801,125.991890 
	C353.322235,131.386581 353.327362,136.643127 352.716736,142.966431 
	C351.619171,142.966431 350.712433,143.189117 349.972382,142.932007 
	C342.511414,140.340012 335.207520,137.173157 327.594025,135.183472 
	C321.868652,133.687210 315.771851,133.401596 309.812561,133.050552 
	C292.060822,132.004944 274.138062,135.118210 256.517151,130.963043 
	C252.202362,129.945587 247.940048,128.633743 243.747940,127.184380 
	C237.175934,124.912193 230.856674,121.439575 224.116226,120.238884 
	C215.013580,118.617416 205.545868,119.144997 196.361740,117.850166 
	C188.847839,116.790794 180.870712,115.658730 174.308472,112.238319 
	C168.759354,109.345970 163.698288,106.288902 157.488861,104.377151 
	C150.982407,102.373970 144.893204,99.188370 137.843063,98.951164 
	C134.093109,98.825005 130.096008,98.945442 126.673889,97.690643 
	C120.077217,95.271820 113.495872,93.950928 106.455757,93.878136 
	C101.175682,93.823532 95.879059,92.824394 90.644241,91.927917 
	C87.675842,91.419586 84.762001,90.421379 81.919716,89.381157 
	C74.512436,86.670242 67.362038,82.770866 59.731239,81.280136 
	C50.152390,79.408829 42.409161,74.446831 34.311878,69.810699 
	C27.213484,65.746475 19.770525,62.584675 11.494407,62.037888 
	C8.010643,61.807724 4.498980,61.999844 1.000000,62.000000 
	C1.000000,41.672329 1.000000,21.344660 1.000000,1.012743 
	C267.586731,1.008495 534.173462,1.008495 800.880127,1.008495 
	C800.880127,150.878204 800.880127,300.756531 800.880127,451.000000 
	C718.978333,451.000000 636.956177,451.000000 554.468994,450.622589 
	C554.677795,448.825775 555.310669,447.385193 556.032654,445.990753 
	C558.751709,440.739105 561.361084,435.423767 564.277344,430.283081 
	C567.015808,425.455933 570.003601,420.762939 573.035522,416.111176 
	C578.297119,408.038544 583.423889,399.859039 589.085083,392.071747 
	C593.921631,385.418793 600.261719,379.751251 604.443420,372.755249 
	C610.677185,362.326202 615.597534,351.112122 621.059570,340.266205 
	C633.374451,338.663208 646.136963,342.080048 658.640991,338.103577 
	C664.686279,336.181091 671.261047,335.896820 677.269531,333.892059 
	C686.871399,330.688354 696.521912,327.315796 705.564270,322.830261 
	C716.819519,317.247040 727.472900,310.451843 738.396240,304.197662 
	C742.481201,301.858765 746.594727,299.569672 750.837891,297.177490 
	C750.837891,292.308929 750.837891,287.157928 750.915649,281.543640 
	C750.961731,273.730316 750.930054,266.380341 750.898315,259.030334 
z"/>
<path fill="#000000" opacity="1.000000" stroke="none" 
	d="
M292.000000,451.000000 
	C195.073059,451.000000 98.146126,451.000000 1.000000,451.000000 
	C1.000000,354.645874 1.000000,258.291595 1.417801,161.468872 
	C3.271090,161.213989 5.664231,160.995956 5.986551,161.711166 
	C8.068926,166.331863 12.846691,167.651306 16.307592,170.455795 
	C22.774153,175.695831 29.626213,180.514328 36.635674,185.013062 
	C42.219482,188.596802 48.247166,191.498672 54.129921,194.604523 
	C61.657604,198.578842 69.133064,202.676682 76.832619,206.291962 
	C81.777901,208.614029 87.064117,210.225952 92.237701,212.041641 
	C98.085793,214.094055 103.878868,216.436356 109.882446,217.872696 
	C115.179977,219.140152 120.736229,219.319061 126.174377,220.009079 
	C128.917053,220.357071 131.769806,220.400131 134.366806,221.227554 
	C142.035461,223.670898 149.733383,226.120987 157.147064,229.220810 
	C160.426498,230.591995 164.192200,232.934677 165.740204,235.884354 
	C169.375626,242.811508 173.574554,249.132568 179.109314,254.618729 
	C184.079330,259.545105 188.992264,264.529114 193.961014,269.456787 
	C194.885452,270.373566 195.827774,271.437683 196.977600,271.936249 
	C208.409988,276.893463 219.099991,283.801971 231.935471,285.164948 
	C233.061005,285.284485 234.597534,287.247223 234.877579,288.578094 
	C235.840225,293.152985 236.768875,297.814575 236.906799,302.466919 
	C237.191589,312.072998 239.613556,321.156555 243.032532,329.977234 
	C246.741913,339.547089 250.813828,348.982086 254.943619,358.381012 
	C257.051544,363.178345 260.068695,367.603943 261.904114,372.487244 
	C265.239716,381.361755 268.046570,390.437408 270.974854,399.461304 
	C271.998291,402.615265 271.800140,406.752533 273.814209,408.858917 
	C276.750183,411.929535 276.849365,415.498718 278.016418,418.929901 
	C279.029114,421.907257 279.842285,425.027405 281.352661,427.746124 
	C285.511444,435.232117 286.816437,444.005066 292.000000,451.000000 
z"/>
<path fill="#F5F5F5" opacity="1.000000" stroke="none" 
	d="
M750.838074,150.992676 
	C750.874329,175.334732 750.910522,199.676788 750.652344,224.480927 
	C750.357910,224.943008 749.899231,225.028214 749.899231,225.028214 
	C749.673096,223.599533 749.446960,222.170868 749.407349,220.070770 
	C748.369812,212.936295 747.145752,206.473267 745.921692,200.010239 
	C745.820923,199.298782 745.720154,198.587311 745.682129,197.081192 
	C745.122253,191.196472 744.499573,186.106415 743.876892,181.016357 
	C743.813843,180.603745 743.750854,180.191132 743.711182,179.126877 
	C743.099243,176.992340 742.463806,175.509430 741.828430,174.026520 
	C741.792786,173.307922 741.757141,172.589340 741.727051,171.165039 
	C740.479980,167.973999 739.227478,165.488678 737.974976,163.003357 
	C737.939087,162.583069 737.903198,162.162811 737.852173,161.126709 
	C737.320923,159.907669 736.804749,159.304443 736.288574,158.701202 
	C736.213318,158.332825 736.138000,157.964447 736.002930,157.016815 
	C735.424072,155.834351 734.904968,155.231140 734.385864,154.627930 
	C734.051636,153.896072 733.717346,153.164246 733.151306,151.921555 
	C732.269592,150.608139 731.619751,149.805573 730.969849,149.003021 
	C730.306458,147.586258 729.643066,146.169495 728.886353,144.075104 
	C726.274719,138.510864 723.756470,133.624252 721.238220,128.737640 
	C721.158752,128.367783 721.079346,127.997932 720.966064,126.976746 
	C719.260681,122.553474 717.589172,118.781540 715.917603,115.009598 
	C715.869263,114.593330 715.820862,114.177055 715.790588,113.084702 
	C714.486511,108.915588 713.296997,105.364151 711.794006,101.950714 
	C710.839783,99.783432 709.419617,97.821342 708.208374,95.767227 
	C703.427185,90.863670 698.645996,85.960121 693.436096,80.625961 
	C691.977722,79.513542 690.948059,78.831718 689.918396,78.149910 
	C689.918396,78.149918 689.616943,77.923347 689.320679,77.522377 
	C687.327148,76.456223 685.629883,75.791039 683.932678,75.125854 
	C683.932678,75.125847 683.586243,74.937355 683.300537,74.561295 
	C681.668579,73.137177 680.322205,72.089119 678.975891,71.041061 
	C678.975891,71.041054 678.638611,70.866669 678.337524,70.481827 
	C673.504333,67.875832 669.064331,65.432114 664.410583,63.504501 
	C660.740601,61.984371 656.807373,61.099648 652.991089,59.932713 
	C652.338257,59.848328 651.685364,59.763947 650.529663,59.344013 
	C647.954163,58.087994 645.943237,56.598999 643.796082,56.366276 
	C639.424988,55.892509 634.561523,52.631714 630.783813,57.821793 
	C629.667358,58.750854 628.550903,59.679916 626.918457,60.886913 
	C625.357422,62.817879 624.312378,64.470901 623.267334,66.123932 
	C623.267334,66.123924 623.098328,66.541298 622.705078,66.837128 
	C621.979004,68.132858 621.646118,69.132751 621.313354,70.132660 
	C620.885681,70.826996 620.458008,71.521309 619.607544,72.595779 
	C618.604187,74.042969 618.023621,75.109993 617.442993,76.177017 
	C616.859558,77.424309 616.276123,78.671608 615.354370,80.435303 
	C614.094299,83.292786 610.213013,85.135315 613.789246,88.234093 
	C613.789246,88.234093 613.886169,88.614548 613.988159,89.153168 
	C614.748230,91.474533 615.406250,93.257294 616.064270,95.040047 
	C616.064270,95.040047 615.876953,95.369286 615.525024,95.660866 
	C614.799988,96.645142 614.426819,97.337837 614.053711,98.030540 
	C613.767578,99.724541 613.481506,101.418549 613.218628,103.832962 
	C615.666321,109.884918 620.709717,109.650208 624.730225,108.519646 
	C631.718384,106.554588 638.346924,106.820099 645.129333,108.703629 
	C649.081177,108.747650 653.033081,108.791672 657.824097,108.906921 
	C660.778748,108.342148 662.894165,107.706139 665.009583,107.070129 
	C666.393677,107.078819 667.777832,107.087509 669.827393,107.282921 
	C671.348755,107.618095 672.204712,107.766556 673.060608,107.915016 
	C673.060608,107.915016 673.009644,107.991737 673.030396,108.267975 
	C673.377380,109.028152 673.703613,109.512093 674.029907,109.996048 
	C674.059204,110.719635 674.088562,111.443214 674.136230,112.883469 
	C675.179077,115.721184 676.203552,117.842232 677.228027,119.963280 
	C677.306213,120.378319 677.384399,120.793350 677.403687,121.882629 
	C678.617615,127.030014 679.890442,131.503159 681.163330,135.976303 
	C681.257935,137.319977 681.352600,138.663666 681.403564,140.779877 
	C681.921204,144.033981 682.482422,146.515533 683.043579,148.997101 
	C683.136780,150.669678 683.229980,152.342255 683.260315,154.894363 
	C683.100525,163.811264 684.044800,171.954376 679.369507,179.341919 
	C678.177795,181.224960 678.238708,183.900681 677.724121,186.212204 
	C677.540283,187.544281 677.356445,188.876358 676.841187,190.885056 
	C676.432861,199.414597 676.356079,207.267517 676.279297,215.120422 
	C676.181580,215.509369 676.083862,215.898300 675.536743,216.673706 
	C672.369629,216.750458 669.651978,216.440765 666.934265,216.131088 
	C666.294678,215.989212 665.655090,215.847336 664.547363,215.381470 
	C663.028503,214.405334 661.977905,213.753174 660.927246,213.101013 
	C660.927246,213.101013 660.995972,213.030563 660.863464,212.731171 
	C659.434692,211.746857 658.138367,211.061935 656.842102,210.377014 
	C656.481567,210.241074 656.121094,210.105118 655.360840,209.571747 
	C652.256470,208.254303 649.551697,207.334290 646.846985,206.414261 
	C644.193176,206.317749 641.539368,206.221237 638.148743,205.793274 
	C632.943298,205.665558 628.474731,205.869293 624.006104,206.073029 
	C623.591370,206.124893 623.176697,206.176758 622.091919,206.221558 
	C617.901855,207.588959 614.381897,208.963440 610.861938,210.337906 
	C610.449158,210.257965 610.036377,210.178009 609.118042,209.846985 
	C608.039124,209.465302 607.465881,209.334717 606.892578,209.204117 
	C606.136719,208.850006 605.380859,208.495911 604.106934,207.848145 
	C602.332947,207.194229 601.077148,206.833984 599.821289,206.473724 
	C599.117188,206.349869 598.413025,206.226013 597.128052,205.818390 
	C594.972717,205.181290 593.398132,204.827957 591.823608,204.474640 
	C590.482544,204.356888 589.141418,204.239120 587.190796,203.832718 
	C583.985718,202.569366 581.390320,201.594666 578.794861,200.619965 
	C578.397583,200.487442 578.000305,200.354904 577.166016,199.852661 
	C575.749329,199.236603 574.769592,198.990250 573.789917,198.743896 
	C573.095154,198.558411 572.400330,198.372925 571.079651,197.819122 
	C561.005310,197.337799 551.557068,197.199188 542.108337,197.165314 
	C541.427856,197.162857 540.744568,197.924683 540.062622,198.331146 
	C539.640747,198.373596 539.218872,198.416046 538.160217,198.422180 
	C535.904907,199.143356 534.286377,199.900833 532.667786,200.658325 
	C532.300659,200.686371 531.933472,200.714432 530.985474,200.582397 
	C529.209656,199.290344 527.875427,198.269623 526.858826,196.995438 
	C525.825684,195.700455 525.105774,194.155579 524.248718,192.720123 
	C523.972595,192.252136 523.696411,191.784149 523.151367,190.856430 
	C522.225525,189.974136 521.568542,189.551559 520.911621,189.128983 
	C520.911621,189.128983 520.949524,189.051071 520.901611,188.746948 
	C520.198669,188.033630 519.543640,187.624435 518.888611,187.215240 
	C518.670532,186.956161 518.452515,186.697067 518.126282,185.900513 
	C518.990051,183.796158 519.961975,182.229233 520.933838,180.662292 
	C521.702820,180.723373 522.471741,180.784470 523.819214,181.209381 
	C528.800232,180.666061 529.488770,177.856567 526.337280,173.658813 
	C526.251099,173.298172 526.164917,172.937531 526.099243,171.937256 
	C529.130066,166.160263 527.907593,161.070419 525.947754,155.988861 
	C525.947754,155.988861 525.997192,156.005676 526.351929,155.928360 
	C526.748230,154.239517 526.789734,152.627991 526.831238,151.016464 
	C526.981628,150.014252 527.132019,149.012054 527.628540,147.417038 
	C528.451904,145.366287 528.929260,143.908371 529.665771,142.276855 
	C529.788879,140.919235 529.652954,139.735214 529.500427,138.185562 
	C527.975647,134.227844 525.491028,133.286346 522.004517,135.064819 
	C522.004517,135.064819 521.525635,134.996887 521.112061,134.696152 
	C518.462341,132.600830 516.226318,130.806229 513.990234,129.011627 
	C513.990234,129.011642 514.000000,129.000000 513.964783,128.673355 
	C513.017639,127.485817 512.105652,126.624939 511.193726,125.764053 
	C511.133026,124.147842 511.072296,122.531631 511.430786,120.483292 
	C512.141113,119.325966 512.432251,118.600777 512.723389,117.875587 
	C512.866760,117.226189 513.010132,116.576782 513.512695,115.460106 
	C514.795532,112.614532 515.719238,110.236237 516.642883,107.857941 
	C516.745056,105.857491 516.847290,103.857056 517.193481,101.194839 
	C517.305542,98.353317 517.173584,96.173569 517.041626,93.993828 
	C516.940125,93.282249 516.838684,92.570671 516.791626,91.065796 
	C516.979065,85.702568 517.647400,80.987320 513.406555,77.604965 
	C512.679443,75.953911 511.952362,74.302864 511.098297,72.031769 
	C510.434875,70.819016 509.898438,70.226318 509.362000,69.633621 
	C509.362000,69.633614 509.219177,69.296913 509.087494,68.816376 
	C507.728027,67.124199 506.500244,65.912567 505.272491,64.700928 
	C504.708191,63.896103 504.143921,63.091278 503.301178,61.754013 
	C501.680115,60.150047 500.337494,59.078529 498.994904,58.007011 
	C498.735229,57.824047 498.500031,57.613693 498.130737,56.871323 
	C497.375336,55.838821 496.778442,55.310959 496.181580,54.783092 
	C495.316620,53.921593 494.451660,53.060097 493.145721,51.812614 
	C490.783356,50.651508 488.861969,49.876389 486.940582,49.101269 
	C486.940582,49.101269 486.648102,48.865391 486.322144,48.480213 
	C483.098297,46.621277 480.200409,45.147514 477.302551,43.673756 
	C476.477905,42.769398 475.653290,41.865040 474.418884,40.588711 
	C472.913361,40.390366 471.817596,40.563995 470.721832,40.737625 
	C470.067474,40.854256 469.413147,40.970886 467.970123,41.095970 
	C458.271912,41.086464 449.361084,40.987122 440.454010,41.126041 
	C438.862427,41.150864 437.286285,42.162113 435.703003,42.717892 
	C435.333923,42.792831 434.964844,42.867775 433.963440,42.973038 
	C431.563873,44.009399 429.796570,45.015438 428.029297,46.021481 
	C424.883270,48.592678 421.737213,51.163872 418.006714,53.953587 
	C416.681000,55.149689 415.939728,56.127266 415.198456,57.104851 
	C414.971161,57.359013 414.743835,57.613167 413.997406,58.095943 
	C412.659576,59.555225 411.840820,60.785889 411.022095,62.016552 
	C410.722504,62.151234 410.469025,62.345970 409.799072,62.841705 
	C408.243317,64.401672 407.150146,65.720695 406.056976,67.039719 
	C405.386597,67.777893 404.716217,68.516068 403.633820,69.634521 
	C402.237915,71.385147 401.253998,72.755478 400.270081,74.125809 
	C400.270081,74.125809 400.091736,74.536613 399.697693,74.838074 
	C399.021118,76.148293 398.738617,77.157059 398.456116,78.165817 
	C398.165955,79.325104 397.875793,80.484398 397.026947,81.988113 
	C390.977081,85.939941 385.855835,90.526962 379.857758,92.792061 
	C376.184387,94.179253 373.581055,94.943260 372.936676,98.955421 
	C372.114410,99.182320 371.292114,99.409218 369.974670,99.886314 
	C368.992249,100.464661 368.504974,100.792824 368.017700,101.120972 
	C367.193665,101.651299 366.369659,102.181625 364.963013,102.858841 
	C363.814148,103.572868 363.247894,104.139992 362.681641,104.707108 
	C362.506805,105.241951 362.331970,105.776802 362.172852,106.926224 
	C362.825653,107.957611 363.462738,108.374420 364.099823,108.791229 
	C367.037994,108.277985 369.976196,107.764740 373.451569,107.575607 
	C374.920105,109.348648 375.851410,110.797585 376.782715,112.246521 
	C377.008423,116.143723 377.234161,120.040916 377.402039,124.757004 
	C377.372681,128.643677 377.299896,131.718124 377.501526,134.774460 
	C377.551239,135.528534 378.493591,136.223724 379.187134,137.044037 
	C379.348694,137.142120 379.716736,137.228424 379.716736,137.228424 
	C377.781891,141.906708 375.847046,146.585007 373.700195,151.913559 
	C370.771606,157.408371 371.210205,159.808365 375.481110,163.468628 
	C381.254639,166.228500 382.819214,172.709976 387.177948,176.692093 
	C389.829742,179.114746 389.714142,182.074677 386.268158,183.102966 
	C380.880341,184.710739 375.368805,186.217499 369.809265,186.787308 
	C367.473633,187.026688 364.301117,185.346436 362.501099,183.546692 
	C351.239166,172.286392 337.396179,165.841629 322.381378,161.671677 
	C318.618774,160.626709 314.447845,160.889389 310.461365,160.845398 
	C300.799896,160.738800 291.136566,160.805176 281.473969,160.803024 
	C280.807617,160.802872 280.087128,160.645554 279.482788,160.841644 
	C264.195190,165.802002 251.028488,158.535568 237.452255,153.603424 
	C221.104431,147.664352 204.880524,141.430618 186.820755,144.961761 
	C176.053558,147.067032 167.885788,140.452484 159.231949,135.594284 
	C148.200165,129.401108 136.774582,124.620377 123.814507,123.527611 
	C110.144630,122.375000 96.459282,120.577927 83.014549,117.891838 
	C74.860840,116.262833 67.187622,112.305435 59.229855,109.595795 
	C52.380341,107.263519 45.478313,105.058571 38.516636,103.090446 
	C32.054417,101.263527 25.916292,99.887108 20.453009,94.814415 
	C15.465668,90.183640 8.093719,88.121086 1.386361,84.963333 
	C1.000000,82.299988 1.000000,79.599968 1.411678,76.395966 
	C9.498151,73.491676 16.589916,75.722885 23.499004,78.795456 
	C31.633020,82.412758 39.511906,86.663719 47.806190,89.845413 
	C58.038132,93.770401 68.487335,97.215904 79.026932,100.222687 
	C86.542946,102.366875 94.319176,103.730377 102.059738,104.917892 
	C109.344666,106.035522 116.747559,106.361618 124.073692,107.242676 
	C127.830902,107.694534 131.734283,108.069832 135.224365,109.394547 
	C146.551880,113.694054 157.644592,118.612839 168.976730,122.899223 
	C175.403244,125.330055 182.003662,127.685432 188.737228,128.822754 
	C197.126297,130.239700 205.775757,127.854179 214.301971,130.829346 
	C224.803696,134.493851 235.618240,137.313950 246.397308,140.115326 
	C255.081329,142.372223 263.849121,144.499939 272.709808,145.794830 
	C276.580780,146.360535 280.798370,144.044662 284.820801,144.177917 
	C297.698029,144.604492 310.833496,144.201050 323.340332,146.731918 
	C334.163025,148.921982 344.408203,154.355927 354.644165,158.945770 
	C364.888763,163.539490 367.980743,161.917435 368.005127,150.905807 
	C368.029541,139.886307 367.042511,129.235916 361.473724,119.199600 
	C358.929443,114.614227 357.033142,108.808754 357.334503,103.703735 
	C357.803833,95.752625 361.859344,88.926033 368.425903,83.649811 
	C375.359985,78.078285 382.693939,72.604759 388.207825,65.762489 
	C395.813446,56.324600 402.835205,46.537212 412.483673,38.954617 
	C421.567078,31.816065 432.000214,27.219521 443.178894,26.334303 
	C453.261261,25.535896 463.519928,25.314037 473.860382,27.638405 
	C484.535431,30.037992 493.740601,34.724678 502.221710,40.917854 
	C515.116943,50.334408 523.994385,62.803162 529.242737,78.133621 
	C532.926819,88.894669 533.289368,100.008385 531.292236,110.438347 
	C530.079895,116.769753 531.620178,121.775101 532.897522,126.957611 
	C535.414368,137.169586 539.751587,146.925385 539.052429,157.809433 
	C538.754028,162.455765 538.897156,167.140442 539.032104,171.802109 
	C539.194519,177.411377 543.005920,181.622131 547.970154,181.999588 
	C556.517334,182.649506 565.130005,182.866684 573.589661,184.115723 
	C582.036316,185.362854 590.307678,187.759201 598.697083,189.447052 
	C603.818726,190.477463 609.006592,191.705444 614.185242,191.807693 
	C622.798828,191.977753 631.428101,191.136139 640.052673,191.090530 
	C643.448120,191.072571 646.900330,191.831772 650.234192,192.625656 
	C654.526062,193.647644 661.227783,190.731644 662.223022,186.231842 
	C664.484985,176.004791 666.423035,165.679398 667.822266,155.303558 
	C668.280273,151.907303 666.834167,148.190704 665.963989,144.693970 
	C664.701050,139.618729 663.873718,134.238678 661.484680,129.715286 
	C660.098694,127.090851 656.190369,124.716179 653.119690,124.268303 
	C644.164856,122.962189 635.013062,123.049438 626.028503,121.891693 
	C617.724365,120.821625 610.011719,118.359352 605.085083,110.401741 
	C598.301575,99.444847 599.411621,87.771683 602.003662,76.319870 
	C603.775879,68.490334 608.389404,61.749691 613.631775,55.301655 
	C623.410706,43.273804 636.342407,41.221287 649.931152,43.431786 
	C664.288940,45.767391 677.513306,52.087780 689.668213,60.203667 
	C695.838135,64.323334 702.033813,68.531586 707.575073,73.427284 
	C712.464539,77.747101 717.710266,82.436096 720.610535,88.085434 
	C728.353394,103.167473 734.825562,118.897507 742.001038,134.277481 
	C744.662415,139.981873 747.876221,145.428497 750.838074,150.992676 
z"/>
<path fill="#FFFFFF" opacity="1.000000" stroke="none" 
	d="
M750.911377,150.529572 
	C747.876221,145.428497 744.662415,139.981873 742.001038,134.277481 
	C734.825562,118.897507 728.353394,103.167473 720.610535,88.085434 
	C717.710266,82.436096 712.464539,77.747101 707.575073,73.427284 
	C702.033813,68.531586 695.838135,64.323334 689.668213,60.203667 
	C677.513306,52.087780 664.288940,45.767391 649.931152,43.431786 
	C636.342407,41.221287 623.410706,43.273804 613.631775,55.301655 
	C608.389404,61.749691 603.775879,68.490334 602.003662,76.319870 
	C599.411621,87.771683 598.301575,99.444847 605.085083,110.401741 
	C610.011719,118.359352 617.724365,120.821625 626.028503,121.891693 
	C635.013062,123.049438 644.164856,122.962189 653.119690,124.268303 
	C656.190369,124.716179 660.098694,127.090851 661.484680,129.715286 
	C663.873718,134.238678 664.701050,139.618729 665.963989,144.693970 
	C666.834167,148.190704 668.280273,151.907303 667.822266,155.303558 
	C666.423035,165.679398 664.484985,176.004791 662.223022,186.231842 
	C661.227783,190.731644 654.526062,193.647644 650.234192,192.625656 
	C646.900330,191.831772 643.448120,191.072571 640.052673,191.090530 
	C631.428101,191.136139 622.798828,191.977753 614.185242,191.807693 
	C609.006592,191.705444 603.818726,190.477463 598.697083,189.447052 
	C590.307678,187.759201 582.036316,185.362854 573.589661,184.115723 
	C565.130005,182.866684 556.517334,182.649506 547.970154,181.999588 
	C543.005920,181.622131 539.194519,177.411377 539.032104,171.802109 
	C538.897156,167.140442 538.754028,162.455765 539.052429,157.809433 
	C539.751587,146.925385 535.414368,137.169586 532.897522,126.957611 
	C531.620178,121.775101 530.079895,116.769753 531.292236,110.438347 
	C533.289368,100.008385 532.926819,88.894669 529.242737,78.133621 
	C523.994385,62.803162 515.116943,50.334408 502.221710,40.917854 
	C493.740601,34.724678 484.535431,30.037992 473.860382,27.638405 
	C463.519928,25.314037 453.261261,25.535896 443.178894,26.334303 
	C432.000214,27.219521 421.567078,31.816065 412.483673,38.954617 
	C402.835205,46.537212 395.813446,56.324600 388.207825,65.762489 
	C382.693939,72.604759 375.359985,78.078285 368.425903,83.649811 
	C361.859344,88.926033 357.803833,95.752625 357.334503,103.703735 
	C357.033142,108.808754 358.929443,114.614227 361.473724,119.199600 
	C367.042511,129.235916 368.029541,139.886307 368.005127,150.905807 
	C367.980743,161.917435 364.888763,163.539490 354.644165,158.945770 
	C344.408203,154.355927 334.163025,148.921982 323.340332,146.731918 
	C310.833496,144.201050 297.698029,144.604492 284.820801,144.177917 
	C280.798370,144.044662 276.580780,146.360535 272.709808,145.794830 
	C263.849121,144.499939 255.081329,142.372223 246.397308,140.115326 
	C235.618240,137.313950 224.803696,134.493851 214.301971,130.829346 
	C205.775757,127.854179 197.126297,130.239700 188.737228,128.822754 
	C182.003662,127.685432 175.403244,125.330055 168.976730,122.899223 
	C157.644592,118.612839 146.551880,113.694054 135.224365,109.394547 
	C131.734283,108.069832 127.830902,107.694534 124.073692,107.242676 
	C116.747559,106.361618 109.344666,106.035522 102.059738,104.917892 
	C94.319176,103.730377 86.542946,102.366875 79.026932,100.222687 
	C68.487335,97.215904 58.038132,93.770401 47.806190,89.845413 
	C39.511906,86.663719 31.633020,82.412758 23.499004,78.795456 
	C16.589916,75.722885 9.498151,73.491676 1.411678,75.945984 
	C1.000000,71.643097 1.000000,67.286201 1.000000,62.464649 
	C4.498980,61.999844 8.010643,61.807724 11.494407,62.037888 
	C19.770525,62.584675 27.213484,65.746475 34.311878,69.810699 
	C42.409161,74.446831 50.152390,79.408829 59.731239,81.280136 
	C67.362038,82.770866 74.512436,86.670242 81.919716,89.381157 
	C84.762001,90.421379 87.675842,91.419586 90.644241,91.927917 
	C95.879059,92.824394 101.175682,93.823532 106.455757,93.878136 
	C113.495872,93.950928 120.077217,95.271820 126.673889,97.690643 
	C130.096008,98.945442 134.093109,98.825005 137.843063,98.951164 
	C144.893204,99.188370 150.982407,102.373970 157.488861,104.377151 
	C163.698288,106.288902 168.759354,109.345970 174.308472,112.238319 
	C180.870712,115.658730 188.847839,116.790794 196.361740,117.850166 
	C205.545868,119.144997 215.013580,118.617416 224.116226,120.238884 
	C230.856674,121.439575 237.175934,124.912193 243.747940,127.184380 
	C247.940048,128.633743 252.202362,129.945587 256.517151,130.963043 
	C274.138062,135.118210 292.060822,132.004944 309.812561,133.050552 
	C315.771851,133.401596 321.868652,133.687210 327.594025,135.183472 
	C335.207520,137.173157 342.511414,140.340012 349.972382,142.932007 
	C350.712433,143.189117 351.619171,142.966431 352.716736,142.966431 
	C353.327362,136.643127 353.322235,131.386581 348.014801,125.991890 
	C341.148956,119.013145 338.182892,109.266441 340.266388,99.448242 
	C341.583954,93.239349 344.807526,87.194710 348.270905,81.776115 
	C350.190338,78.773026 354.360199,77.207031 357.524841,75.006432 
	C357.639526,74.926682 357.931641,75.056816 358.006348,74.971344 
	C362.073944,70.318375 367.897919,68.453018 372.977844,65.398125 
	C374.138672,64.700058 374.940033,63.139141 375.534271,61.808918 
	C378.473419,55.228939 383.670441,50.425339 388.307343,45.163536 
	C391.977539,40.998802 394.929291,35.981747 399.205780,32.624111 
	C405.010101,28.066942 410.293427,22.298828 418.190674,20.936073 
	C419.355408,20.735092 420.416840,19.760801 421.451569,19.037739 
	C422.248352,18.480972 422.845428,17.342306 423.673981,17.176826 
	C427.943176,16.324181 432.245911,15.205003 436.560089,15.096061 
	C447.882904,14.810133 459.219727,15.128778 470.547028,14.953041 
	C477.819397,14.840214 484.371246,16.934555 490.754333,20.158504 
	C493.265015,21.426590 496.255829,21.762390 498.728119,23.083818 
	C502.545044,25.123955 506.276947,27.417126 509.731171,30.019428 
	C514.608337,33.693726 519.489075,37.451653 523.842896,41.710865 
	C530.011658,47.745525 533.545471,55.621532 536.877991,63.406322 
	C538.846436,68.004654 539.344177,73.212090 541.067078,77.940125 
	C545.003296,88.741768 541.942322,99.868423 543.056946,110.772903 
	C543.426514,114.388321 544.364868,117.958008 545.205627,121.510147 
	C546.739929,127.991714 548.970276,134.366547 549.860840,140.928329 
	C551.086365,149.958923 551.258118,159.129303 552.117554,168.217438 
	C552.212280,169.218170 553.804443,170.134079 554.810242,170.957062 
	C555.110413,171.202667 555.781555,170.966019 556.278564,171.004181 
	C564.885376,171.665054 573.552246,171.920197 582.073730,173.167297 
	C586.702454,173.844711 591.016968,176.448700 595.597351,177.745010 
	C599.423401,178.827820 603.419067,179.820328 607.358765,179.899414 
	C620.516296,180.163620 633.683228,179.917709 646.844788,180.049103 
	C650.823853,180.088806 652.772644,179.058456 653.180237,174.570618 
	C653.541504,170.592850 655.827820,166.824448 656.549561,162.834335 
	C657.158081,159.470184 656.974915,155.901642 656.700500,152.458786 
	C656.489258,149.808289 655.205078,147.231552 655.074707,144.588638 
	C654.732910,137.658981 652.179321,135.001053 645.225220,135.000458 
	C643.892273,135.000351 642.553650,135.081039 641.227295,134.987473 
	C632.119324,134.344940 622.844604,134.507034 613.964172,132.718735 
	C607.469299,131.410828 601.285583,127.891693 595.408386,124.570389 
	C593.536865,123.512756 593.000488,119.961708 592.029419,117.482567 
	C591.227112,115.434135 590.582458,113.309334 590.051025,111.172852 
	C589.280701,108.075951 588.279785,104.962051 588.088257,101.812149 
	C587.765076,96.500023 588.161926,91.147583 587.952393,85.824059 
	C587.756165,80.840187 588.219666,76.230591 591.317566,71.981621 
	C592.331543,70.590881 591.908386,68.204483 592.316345,66.310867 
	C594.195251,57.588898 599.546814,50.711308 604.744812,43.863850 
	C610.278137,36.574627 618.043274,33.549290 626.992859,31.599661 
	C631.914734,30.527433 636.690491,29.786320 641.477295,30.129585 
	C650.717224,30.792175 659.720459,32.743103 668.289978,36.652576 
	C673.868286,39.197437 680.147034,40.304386 685.532104,43.152115 
	C693.009460,47.106312 699.682556,52.591019 707.186401,56.482731 
	C713.997253,60.015064 720.036377,64.378830 724.572021,70.314903 
	C728.357361,75.268997 731.024231,81.103249 733.978699,86.658173 
	C736.154907,90.749763 738.218994,94.931046 739.927063,99.233528 
	C741.849670,104.076134 742.303711,109.809364 745.175903,113.908440 
	C753.106689,125.227165 750.623596,137.785828 750.911377,150.529572 
z"/>
<path fill="#F5F5F6" opacity="1.000000" stroke="none" 
	d="
M1.000000,134.463181 
	C13.612135,132.021606 22.334433,138.596252 31.405132,146.283920 
	C46.196312,158.819870 63.209621,168.178421 80.664581,176.627319 
	C86.306541,179.358231 91.609253,183.083115 97.513313,184.916687 
	C108.830315,188.431366 120.326859,192.048935 132.012253,193.493210 
	C142.436798,194.781662 152.108109,197.921707 161.729538,201.355103 
	C169.455032,204.111969 176.701294,208.250641 184.048874,211.994659 
	C185.498062,212.733109 186.959000,214.269592 187.534821,215.774628 
	C193.625473,231.694016 205.145767,243.146973 219.141541,251.715256 
	C229.235901,257.895081 240.575241,261.967926 253.052704,261.111847 
	C258.636444,260.728760 261.056366,263.311584 260.968567,268.787048 
	C260.735596,283.314728 261.394318,297.882233 265.363831,311.805328 
	C268.288574,322.063782 272.428619,332.346893 278.039124,341.367645 
	C284.064087,351.054810 286.610260,361.776184 290.636230,372.041138 
	C296.434875,386.825989 301.504181,401.895416 307.188019,416.727142 
	C311.510437,428.006287 316.304871,439.104523 320.944641,450.641632 
	C315.645081,451.000000 310.290131,451.000000 304.427063,450.636963 
	C299.871704,440.355560 295.721893,430.477478 291.802429,420.508850 
	C286.499390,407.021240 280.250427,393.769012 276.472015,379.855133 
	C272.303436,364.504547 264.123535,351.139618 258.243347,336.679413 
	C253.553055,325.145386 248.949432,313.684662 247.935303,301.086273 
	C247.514328,295.856354 246.702957,290.622192 245.593307,285.492889 
	C244.330231,279.654358 240.265274,276.049133 234.757019,274.128357 
	C225.408417,270.868408 216.386871,267.391113 207.780701,261.981750 
	C197.774811,255.692596 189.820358,247.838074 183.208008,238.551300 
	C176.210846,228.724106 168.197021,220.080643 156.709534,216.318741 
	C144.736328,212.397781 132.356094,209.412247 119.938293,207.262970 
	C111.460236,205.795578 103.327660,203.886719 95.343636,200.705368 
	C76.997078,193.394897 59.831226,183.883774 43.265770,173.266602 
	C33.975021,167.311951 25.163759,160.609909 15.882098,154.640076 
	C11.214375,151.637863 5.978790,149.518570 1.000000,147.000000 
	C1.000000,142.975449 1.000000,138.950912 1.000000,134.463181 
z"/>
<path fill="#FFFFFF" opacity="1.000000" stroke="none" 
	d="
M1.000000,147.464645 
	C5.978790,149.518570 11.214375,151.637863 15.882098,154.640076 
	C25.163759,160.609909 33.975021,167.311951 43.265770,173.266602 
	C59.831226,183.883774 76.997078,193.394897 95.343636,200.705368 
	C103.327660,203.886719 111.460236,205.795578 119.938293,207.262970 
	C132.356094,209.412247 144.736328,212.397781 156.709534,216.318741 
	C168.197021,220.080643 176.210846,228.724106 183.208008,238.551300 
	C189.820358,247.838074 197.774811,255.692596 207.780701,261.981750 
	C216.386871,267.391113 225.408417,270.868408 234.757019,274.128357 
	C240.265274,276.049133 244.330231,279.654358 245.593307,285.492889 
	C246.702957,290.622192 247.514328,295.856354 247.935303,301.086273 
	C248.949432,313.684662 253.553055,325.145386 258.243347,336.679413 
	C264.123535,351.139618 272.303436,364.504547 276.472015,379.855133 
	C280.250427,393.769012 286.499390,407.021240 291.802429,420.508850 
	C295.721893,430.477478 299.871704,440.355560 303.959473,450.636963 
	C300.307098,451.000000 296.614166,451.000000 292.460632,451.000000 
	C286.816437,444.005066 285.511444,435.232117 281.352661,427.746124 
	C279.842285,425.027405 279.029114,421.907257 278.016418,418.929901 
	C276.849365,415.498718 276.750183,411.929535 273.814209,408.858917 
	C271.800140,406.752533 271.998291,402.615265 270.974854,399.461304 
	C268.046570,390.437408 265.239716,381.361755 261.904114,372.487244 
	C260.068695,367.603943 257.051544,363.178345 254.943619,358.381012 
	C250.813828,348.982086 246.741913,339.547089 243.032532,329.977234 
	C239.613556,321.156555 237.191589,312.072998 236.906799,302.466919 
	C236.768875,297.814575 235.840225,293.152985 234.877579,288.578094 
	C234.597534,287.247223 233.061005,285.284485 231.935471,285.164948 
	C219.099991,283.801971 208.409988,276.893463 196.977600,271.936249 
	C195.827774,271.437683 194.885452,270.373566 193.961014,269.456787 
	C188.992264,264.529114 184.079330,259.545105 179.109314,254.618729 
	C173.574554,249.132568 169.375626,242.811508 165.740204,235.884354 
	C164.192200,232.934677 160.426498,230.591995 157.147064,229.220810 
	C149.733383,226.120987 142.035461,223.670898 134.366806,221.227554 
	C131.769806,220.400131 128.917053,220.357071 126.174377,220.009079 
	C120.736229,219.319061 115.179977,219.140152 109.882446,217.872696 
	C103.878868,216.436356 98.085793,214.094055 92.237701,212.041641 
	C87.064117,210.225952 81.777901,208.614029 76.832619,206.291962 
	C69.133064,202.676682 61.657604,198.578842 54.129921,194.604523 
	C48.247166,191.498672 42.219482,188.596802 36.635674,185.013062 
	C29.626213,180.514328 22.774153,175.695831 16.307592,170.455795 
	C12.846691,167.651306 8.068926,166.331863 5.986551,161.711166 
	C5.664231,160.995956 3.271090,161.213989 1.417801,161.000214 
	C1.000000,156.643097 1.000000,152.286194 1.000000,147.464645 
z"/>
<path fill="#F6F5F6" opacity="1.000000" stroke="none" 
	d="
M750.543945,259.110046 
	C750.930054,266.380341 750.961731,273.730316 750.577026,281.587708 
	C740.557861,287.855743 730.840149,293.434509 721.378113,299.417664 
	C705.375671,309.536560 688.700684,317.942657 670.413696,323.362854 
	C658.626343,326.856628 646.913574,329.337463 634.620117,329.023376 
	C629.293518,328.887268 623.958252,329.095642 618.631165,328.969879 
	C614.226624,328.865875 611.289673,331.242615 609.382324,334.693817 
	C607.406677,338.268677 606.426880,342.398468 604.416748,345.948853 
	C599.627319,354.408203 594.844055,362.911896 589.381653,370.937103 
	C584.575989,377.997406 578.340332,384.096436 573.655945,391.224365 
	C566.962158,401.409882 560.727173,411.944763 555.009827,422.709381 
	C550.149109,431.861206 546.297913,441.549225 542.000000,451.000000 
	C536.645081,451.000000 531.290100,451.000000 525.467529,451.000000 
	C527.946899,443.712708 530.323425,436.126038 533.958618,429.200012 
	C541.722839,414.406891 549.549683,399.582184 558.487305,385.491241 
	C564.846497,375.465485 573.276062,366.776367 580.393982,357.202545 
	C589.410034,345.075592 595.755066,331.712616 597.097595,316.399658 
	C597.507507,311.724396 599.761963,309.308380 604.511536,309.898682 
	C610.075439,310.590179 615.673767,311.233490 621.140930,312.429260 
	C633.946350,315.230286 646.587585,314.035278 659.093567,311.052826 
	C677.486206,306.666473 693.950012,297.729706 710.261597,288.533417 
	C718.320801,283.989807 726.498596,279.625427 734.311523,274.687531 
	C739.178223,271.611755 743.578003,267.747253 747.935486,263.947968 
	C749.148010,262.890778 749.462891,260.804138 750.543945,259.110046 
z"/>
<path fill="#FFFFFF" opacity="1.000000" stroke="none" 
	d="
M542.460632,451.000000 
	C546.297913,441.549225 550.149109,431.861206 555.009827,422.709381 
	C560.727173,411.944763 566.962158,401.409882 573.655945,391.224365 
	C578.340332,384.096436 584.575989,377.997406 589.381653,370.937103 
	C594.844055,362.911896 599.627319,354.408203 604.416748,345.948853 
	C606.426880,342.398468 607.406677,338.268677 609.382324,334.693817 
	C611.289673,331.242615 614.226624,328.865875 618.631165,328.969879 
	C623.958252,329.095642 629.293518,328.887268 634.620117,329.023376 
	C646.913574,329.337463 658.626343,326.856628 670.413696,323.362854 
	C688.700684,317.942657 705.375671,309.536560 721.378113,299.417664 
	C730.840149,293.434509 740.557861,287.855743 750.499268,282.051025 
	C750.837891,287.157928 750.837891,292.308929 750.837891,297.177490 
	C746.594727,299.569672 742.481201,301.858765 738.396240,304.197662 
	C727.472900,310.451843 716.819519,317.247040 705.564270,322.830261 
	C696.521912,327.315796 686.871399,330.688354 677.269531,333.892059 
	C671.261047,335.896820 664.686279,336.181091 658.640991,338.103577 
	C646.136963,342.080048 633.374451,338.663208 621.059570,340.266205 
	C615.597534,351.112122 610.677185,362.326202 604.443420,372.755249 
	C600.261719,379.751251 593.921631,385.418793 589.085083,392.071747 
	C583.423889,399.859039 578.297119,408.038544 573.035522,416.111176 
	C570.003601,420.762939 567.015808,425.455933 564.277344,430.283081 
	C561.361084,435.423767 558.751709,440.739105 556.032654,445.990753 
	C555.310669,447.385193 554.677795,448.825775 554.001953,450.622589 
	C550.307068,451.000000 546.614197,451.000000 542.460632,451.000000 
z"/>
<path fill="#6E607B" opacity="1.000000" stroke="none" 
	d="
M380.109863,137.159195 
	C379.716736,137.228424 379.348694,137.142120 379.196167,136.654099 
	C379.404663,134.128891 379.765625,132.091705 380.126587,130.054520 
	C386.402191,127.365341 381.143158,123.203995 382.338501,118.756744 
	C383.527069,120.010948 385.329773,121.074005 385.790649,122.554718 
	C387.251740,127.248764 384.251190,134.880859 380.109863,137.159195 
z"/>
<path fill="#AA9EB7" opacity="1.000000" stroke="none" 
	d="
M678.004211,186.060547 
	C678.238708,183.900681 678.177795,181.224960 679.369507,179.341919 
	C684.044800,171.954376 683.100525,163.811264 683.319336,155.307373 
	C683.829285,160.077423 685.198608,165.482315 684.337097,170.504593 
	C683.423889,175.828781 680.391296,180.789459 678.004211,186.060547 
z"/>
<path fill="#AA9EB7" opacity="1.000000" stroke="none" 
	d="
M436.188477,42.812675 
	C437.286285,42.162113 438.862427,41.150864 440.454010,41.126041 
	C449.361084,40.987122 458.271912,41.086464 467.652954,41.196358 
	C466.738647,41.857014 465.359070,42.899239 463.966003,42.917667 
	C454.870270,43.037983 445.771606,42.936462 436.188477,42.812675 
z"/>
<path fill="#AA9EB7" opacity="1.000000" stroke="none" 
	d="
M373.299438,98.931686 
	C373.581055,94.943260 376.184387,94.179253 379.857758,92.792061 
	C385.855835,90.526962 390.977081,85.939941 396.798157,82.266479 
	C394.436310,85.096634 392.123444,88.538956 388.949921,90.740738 
	C385.542969,93.104454 381.284393,94.214127 377.486786,96.055252 
	C376.081268,96.736671 374.929596,97.941719 373.299438,98.931686 
z"/>
<path fill="#AA9EB7" opacity="1.000000" stroke="none" 
	d="
M645.016113,108.375519 
	C638.346924,106.820099 631.718384,106.554588 624.730225,108.519646 
	C620.709717,109.650208 615.666321,109.884918 613.323364,104.193016 
	C618.190857,107.901993 623.288574,107.626518 629.000854,105.743004 
	C634.438477,103.950012 640.000427,104.534256 645.016113,108.375519 
z"/>
<path fill="#AA9EB7" opacity="1.000000" stroke="none" 
	d="
M540.395508,198.556793 
	C540.744568,197.924683 541.427856,197.162857 542.108337,197.165314 
	C551.557068,197.199188 561.005310,197.337799 570.720642,197.781616 
	C566.635925,198.380768 562.287170,198.799438 557.932068,198.880264 
	C552.200134,198.986664 546.463196,198.827438 540.395508,198.556793 
z"/>
<path fill="#AA9EB7" opacity="1.000000" stroke="none" 
	d="
M522.176941,135.417236 
	C525.491028,133.286346 527.975647,134.227844 529.357422,138.289093 
	C529.231018,138.758255 528.987061,139.013428 528.651001,138.993576 
	C527.674377,139.320755 527.033752,139.667786 526.393127,140.014832 
	C527.254089,140.665054 528.115051,141.315277 529.081787,142.088348 
	C529.187622,142.211197 529.406616,142.450455 529.406616,142.450455 
	C528.929260,143.908371 528.451904,145.366287 527.750366,147.055099 
	C524.493591,144.034668 522.398132,140.362152 522.176941,135.417236 
z"/>
<path fill="#AA9EB7" opacity="1.000000" stroke="none" 
	d="
M653.213013,60.214462 
	C656.807373,61.099648 660.740601,61.984371 664.410583,63.504501 
	C669.064331,65.432114 673.504333,67.875832 678.155762,70.427307 
	C674.602234,69.433907 670.869507,68.253792 667.271729,66.750710 
	C662.603333,64.800392 658.042236,62.592972 653.213013,60.214462 
z"/>
<path fill="#AA9EB7" opacity="1.000000" stroke="none" 
	d="
M676.641724,214.974060 
	C676.356079,207.267517 676.432861,199.414597 676.836670,191.291885 
	C677.110535,198.957291 677.057373,206.892487 676.641724,214.974060 
z"/>
<path fill="#AA9EB7" opacity="1.000000" stroke="none" 
	d="
M745.670166,200.263123 
	C747.145752,206.473267 748.369812,212.936295 749.380859,219.708740 
	C747.918152,213.517441 746.668457,207.016724 745.670166,200.263123 
z"/>
<path fill="#6F6A73" opacity="1.000000" stroke="none" 
	d="
M375.766571,163.199463 
	C371.210205,159.808365 370.771606,157.408371 373.725769,152.278748 
	C374.639771,153.563782 375.627625,155.079529 375.913391,156.717758 
	C376.265320,158.735275 376.032288,160.854828 375.766571,163.199463 
z"/>
<path fill="#AA9EB7" opacity="1.000000" stroke="none" 
	d="
M631.205200,57.835808 
	C634.561523,52.631714 639.424988,55.892509 643.796082,56.366276 
	C645.943237,56.598999 647.954163,58.087994 650.202148,59.309952 
	C647.028748,58.928780 643.706299,57.986748 640.322998,57.643070 
	C637.460693,57.352325 634.528015,57.754375 631.205200,57.835808 
z"/>
<path fill="#AA9EB7" opacity="1.000000" stroke="none" 
	d="
M708.158630,96.155968 
	C709.419617,97.821342 710.839783,99.783432 711.794006,101.950714 
	C713.296997,105.364151 714.486511,108.915588 715.705444,112.781624 
	C713.104370,107.617996 710.606628,102.081352 708.158630,96.155968 
z"/>
<path fill="#AA9EB7" opacity="1.000000" stroke="none" 
	d="
M743.628540,181.318085 
	C744.499573,186.106415 745.122253,191.196472 745.587158,196.734222 
	C744.746338,191.994537 744.063293,186.807175 743.628540,181.318085 
z"/>
<path fill="#AA9EB7" opacity="1.000000" stroke="none" 
	d="
M525.614319,156.028839 
	C527.907593,161.070419 529.130066,166.160263 526.010620,171.673492 
	C525.396667,171.238602 524.262207,170.019547 524.482910,169.679321 
	C527.135010,165.589813 526.343628,161.626587 524.498962,157.572647 
	C524.354675,157.255585 525.001648,156.578537 525.614319,156.028839 
z"/>
<path fill="#AA9EB7" opacity="1.000000" stroke="none" 
	d="
M721.184448,129.124191 
	C723.756470,133.624252 726.274719,138.510864 728.741333,143.767349 
	C726.170044,139.261719 723.650330,134.386230 721.184448,129.124191 
z"/>
<path fill="#AA9EB7" opacity="1.000000" stroke="none" 
	d="
M681.403564,135.698135 
	C679.890442,131.503159 678.617615,127.030014 677.508606,122.181976 
	C678.996216,126.344711 680.320007,130.882339 681.403564,135.698135 
z"/>
<path fill="#AA9EB7" opacity="1.000000" stroke="none" 
	d="
M624.322205,206.331390 
	C628.474731,205.869293 632.943298,205.665558 637.703613,205.757050 
	C633.542969,206.231445 629.090637,206.410614 624.322205,206.331390 
z"/>
<path fill="#AA9EB7" opacity="1.000000" stroke="none" 
	d="
M513.313599,78.009949 
	C517.647400,80.987320 516.979065,85.702568 516.715820,90.714500 
	C516.084045,89.901245 515.427307,88.683586 515.112122,87.383133 
	C514.392761,84.415276 513.840698,81.406883 513.313599,78.009949 
z"/>
<path fill="#AA9EB7" opacity="1.000000" stroke="none" 
	d="
M715.674438,115.241898 
	C717.589172,118.781540 719.260681,122.553474 720.867065,126.710533 
	C719.011719,123.221832 717.221497,119.348015 715.674438,115.241898 
z"/>
<path fill="#AA9EB7" opacity="1.000000" stroke="none" 
	d="
M524.205688,193.130737 
	C525.105774,194.155579 525.825684,195.700455 526.858826,196.995438 
	C527.875427,198.269623 529.209656,199.290344 530.712036,200.621399 
	C527.718689,203.228363 525.922485,202.004181 525.143188,198.373734 
	C524.798218,196.766815 524.488403,195.152359 524.205688,193.130737 
z"/>
<path fill="#AA9EB7" opacity="1.000000" stroke="none" 
	d="
M380.058289,129.707611 
	C379.765625,132.091705 379.404663,134.128891 379.034637,136.556030 
	C378.493591,136.223724 377.551239,135.528534 377.501526,134.774460 
	C377.299896,131.718124 377.372681,128.643677 377.515015,125.189056 
	C378.453827,126.321709 379.221924,127.841202 380.058289,129.707611 
z"/>
<path fill="#AA9EB7" opacity="1.000000" stroke="none" 
	d="
M610.976624,210.650116 
	C614.381897,208.963440 617.901855,207.588959 621.789917,206.307114 
	C618.921692,209.018295 616.025452,212.461868 610.976624,210.650116 
z"/>
<path fill="#AA9EB7" opacity="1.000000" stroke="none" 
	d="
M667.019897,216.476471 
	C669.651978,216.440765 672.369629,216.750458 675.499573,216.972473 
	C675.028198,217.763733 673.952454,219.508301 673.296265,219.362671 
	C671.150391,218.886429 669.157288,217.721802 667.019897,216.476471 
z"/>
<path fill="#AA9EB7" opacity="1.000000" stroke="none" 
	d="
M526.245239,174.083069 
	C529.488770,177.856567 528.800232,180.666061 524.200073,181.272919 
	C524.719299,178.817520 525.436218,176.662430 526.245239,174.083069 
z"/>
<path fill="#AA9EB7" opacity="1.000000" stroke="none" 
	d="
M477.239166,44.050941 
	C480.200409,45.147514 483.098297,46.621277 486.150024,48.404839 
	C483.261200,47.285805 480.218506,45.856968 477.239166,44.050941 
z"/>
<path fill="#AA9EB7" opacity="1.000000" stroke="none" 
	d="
M516.771301,94.255447 
	C517.173584,96.173569 517.305542,98.353317 517.186890,100.763550 
	C516.791138,98.835045 516.646057,96.676064 516.771301,94.255447 
z"/>
<path fill="#AA9EB7" opacity="1.000000" stroke="none" 
	d="
M578.930908,200.906067 
	C581.390320,201.594666 583.985718,202.569366 586.785034,203.827744 
	C584.348267,203.138351 581.707581,202.165268 578.930908,200.906067 
z"/>
<path fill="#AA9EB7" opacity="1.000000" stroke="none" 
	d="
M683.303955,148.726349 
	C682.482422,146.515533 681.921204,144.033981 681.493591,141.172150 
	C685.067078,142.640198 683.950134,145.640305 683.303955,148.726349 
z"/>
<path fill="#AA9EB7" opacity="1.000000" stroke="none" 
	d="
M514.023193,129.357727 
	C516.226318,130.806229 518.462341,132.600830 520.870850,134.678497 
	C518.714233,133.208984 516.385193,131.456406 514.023193,129.357727 
z"/>
<path fill="#AA9EB7" opacity="1.000000" stroke="none" 
	d="
M737.747498,163.217529 
	C739.227478,165.488678 740.479980,167.973999 741.646973,170.814087 
	C740.214294,168.589798 738.867188,166.010727 737.747498,163.217529 
z"/>
<path fill="#AA9EB7" opacity="1.000000" stroke="none" 
	d="
M646.984253,206.719345 
	C649.551697,207.334290 652.256470,208.254303 655.079834,209.503601 
	C652.506165,208.896729 649.813782,207.960587 646.984253,206.719345 
z"/>
<path fill="#AA9EB7" opacity="1.000000" stroke="none" 
	d="
M520.697021,180.486908 
	C519.961975,182.229233 518.990051,183.796158 517.955872,185.712189 
	C515.522156,183.520844 515.876770,182.726440 520.697021,180.486908 
z"/>
<path fill="#AA9EB7" opacity="1.000000" stroke="none" 
	d="
M616.405396,94.968704 
	C615.406250,93.257294 614.748230,91.474533 614.071106,89.331070 
	C616.913879,90.053314 619.438660,91.289490 616.405396,94.968704 
z"/>
<path fill="#AA9EB7" opacity="1.000000" stroke="none" 
	d="
M677.445068,119.722260 
	C676.203552,117.842232 675.179077,115.721184 674.216736,113.237137 
	C675.406677,115.076508 676.534424,117.278877 677.445068,119.722260 
z"/>
<path fill="#AA9EB7" opacity="1.000000" stroke="none" 
	d="
M613.870850,87.839096 
	C610.213013,85.135315 614.094299,83.292786 615.304321,80.783386 
	C615.045959,82.891411 614.499207,85.167755 613.870850,87.839096 
z"/>
<path fill="#AA9EB7" opacity="1.000000" stroke="none" 
	d="
M516.335022,107.984406 
	C515.719238,110.236237 514.795532,112.614532 513.557251,115.130310 
	C514.170837,112.882141 515.098999,110.496498 516.335022,107.984406 
z"/>
<path fill="#AA9EB7" opacity="1.000000" stroke="none" 
	d="
M664.780762,106.826782 
	C662.894165,107.706139 660.778748,108.342148 658.276855,108.860931 
	C660.110840,108.023621 662.331360,107.303528 664.780762,106.826782 
z"/>
<path fill="#AA9EB7" opacity="1.000000" stroke="none" 
	d="
M486.997803,49.431221 
	C488.861969,49.876389 490.783356,50.651508 492.846771,51.745811 
	C491.010864,51.297058 489.032928,50.529118 486.997803,49.431221 
z"/>
<path fill="#AA9EB7" opacity="1.000000" stroke="none" 
	d="
M591.937134,204.777252 
	C593.398132,204.827957 594.972717,205.181290 596.770020,205.803238 
	C595.345459,205.741196 593.698120,205.410522 591.937134,204.777252 
z"/>
<path fill="#AA9EB7" opacity="1.000000" stroke="none" 
	d="
M623.583862,66.042412 
	C624.312378,64.470901 625.357422,62.817879 626.742920,61.147346 
	C626.022400,62.740192 624.961426,64.350540 623.583862,66.042412 
z"/>
<path fill="#AA9EB7" opacity="1.000000" stroke="none" 
	d="
M741.611694,174.253693 
	C742.463806,175.509430 743.099243,176.992340 743.614868,178.828278 
	C742.795105,177.614517 742.095032,176.047699 741.611694,174.253693 
z"/>
<path fill="#AA9EB7" opacity="1.000000" stroke="none" 
	d="
M428.401855,46.019894 
	C429.796570,45.015438 431.563873,44.009399 433.692932,43.054707 
	C432.294586,44.076809 430.534515,45.047562 428.401855,46.019894 
z"/>
<path fill="#AA9EB7" opacity="1.000000" stroke="none" 
	d="
M749.649109,225.264572 
	C749.899231,225.028214 750.357910,224.943008 750.591125,224.942429 
	C750.866394,226.334351 750.908447,227.726837 750.890686,229.535217 
	C750.353577,228.467697 749.876282,226.984314 749.649109,225.264572 
z"/>
<path fill="#AA9EB7" opacity="1.000000" stroke="none" 
	d="
M376.846497,111.856735 
	C375.851410,110.797585 374.920105,109.348648 373.845245,107.591415 
	C374.771240,108.677727 375.840729,110.072342 376.846497,111.856735 
z"/>
<path fill="#AA9EB7" opacity="1.000000" stroke="none" 
	d="
M400.590881,74.046524 
	C401.253998,72.755478 402.237915,71.385147 403.546448,69.928505 
	C402.884613,71.217209 401.898163,72.592216 400.590881,74.046524 
z"/>
<path fill="#AA9EB7" opacity="1.000000" stroke="none" 
	d="
M505.211731,65.060768 
	C506.500244,65.912567 507.728027,67.124199 508.978271,68.669716 
	C507.717499,67.809265 506.434235,66.614937 505.211731,65.060768 
z"/>
<path fill="#AA9EB7" opacity="1.000000" stroke="none" 
	d="
M499.026978,58.351543 
	C500.337494,59.078529 501.680115,60.150047 503.085907,61.552742 
	C501.785736,60.821304 500.422394,59.758694 499.026978,58.351543 
z"/>
<path fill="#AA9EB7" opacity="1.000000" stroke="none" 
	d="
M406.394653,67.006958 
	C407.150146,65.720695 408.243317,64.401672 409.673828,63.048107 
	C408.918243,64.333771 407.825287,65.653984 406.394653,67.006958 
z"/>
<path fill="#AA9EB7" opacity="1.000000" stroke="none" 
	d="
M679.019043,71.383728 
	C680.322205,72.089119 681.668579,73.137177 683.111755,74.504318 
	C681.826416,73.791061 680.444275,72.758728 679.019043,71.383728 
z"/>
<path fill="#AA9EB7" opacity="1.000000" stroke="none" 
	d="
M533.029785,200.762390 
	C534.286377,199.900833 535.904907,199.143356 537.859192,198.528656 
	C536.593933,199.403122 534.992859,200.134796 533.029785,200.762390 
z"/>
<path fill="#AA9EB7" opacity="1.000000" stroke="none" 
	d="
M684.008972,75.465874 
	C685.629883,75.791039 687.327148,76.456223 689.152222,77.437607 
	C687.548523,77.104507 685.816895,76.455200 684.008972,75.465874 
z"/>
<path fill="#AA9EB7" opacity="1.000000" stroke="none" 
	d="
M599.919312,206.767532 
	C601.077148,206.833984 602.332947,207.194229 603.788208,207.830200 
	C602.664124,207.757736 601.340698,207.409531 599.919312,206.767532 
z"/>
<path fill="#AA9EB7" opacity="1.000000" stroke="none" 
	d="
M526.624390,151.206207 
	C526.789734,152.627991 526.748230,154.239517 526.349915,155.902313 
	C526.134583,154.434387 526.276062,152.915161 526.624390,151.206207 
z"/>
<path fill="#AA9EB7" opacity="1.000000" stroke="none" 
	d="
M411.367188,61.983330 
	C411.840820,60.785889 412.659576,59.555225 413.800171,58.259251 
	C413.318787,59.445992 412.515533,60.698051 411.367188,61.983330 
z"/>
<path fill="#AA9EB7" opacity="1.000000" stroke="none" 
	d="
M656.929138,210.694290 
	C658.138367,211.061935 659.434692,211.746857 660.820190,212.754425 
	C659.611694,212.388580 658.313904,211.700073 656.929138,210.694290 
z"/>
<path fill="#AA9EB7" opacity="1.000000" stroke="none" 
	d="
M573.914673,198.980713 
	C574.769592,198.990250 575.749329,199.236603 576.855652,199.799072 
	C576.001343,199.815964 575.020325,199.516754 573.914673,198.980713 
z"/>
<path fill="#AA9EB7" opacity="1.000000" stroke="none" 
	d="
M660.981262,213.448029 
	C661.977905,213.753174 663.028503,214.405334 664.221375,215.344452 
	C663.254150,215.019287 662.144714,214.407181 660.981262,213.448029 
z"/>
<path fill="#AA9EB7" opacity="1.000000" stroke="none" 
	d="
M511.160461,126.118050 
	C512.105652,126.624939 513.017639,127.485817 513.958923,128.678436 
	C513.034607,128.164139 512.080933,127.318092 511.160461,126.118050 
z"/>
<path fill="#AA9EB7" opacity="1.000000" stroke="none" 
	d="
M689.981812,78.482864 
	C690.948059,78.831718 691.977722,79.513542 693.111389,80.506485 
	C692.158691,80.150337 691.101990,79.483078 689.981812,78.482864 
z"/>
<path fill="#AA9EB7" opacity="1.000000" stroke="none" 
	d="
M415.510101,57.045765 
	C415.939728,56.127266 416.681000,55.149689 417.764069,54.186283 
	C417.344513,55.129200 416.583130,56.057945 415.510101,57.045765 
z"/>
<path fill="#AA9EB7" opacity="1.000000" stroke="none" 
	d="
M617.744873,76.071518 
	C618.023621,75.109993 618.604187,74.042969 619.507263,72.884720 
	C619.235413,73.851013 618.640991,74.908508 617.744873,76.071518 
z"/>
<path fill="#AA9EB7" opacity="1.000000" stroke="none" 
	d="
M730.742798,149.188904 
	C731.619751,149.805573 732.269592,150.608139 732.907959,151.738754 
	C732.102844,151.169464 731.309265,150.272141 730.742798,149.188904 
z"/>
<path fill="#AA9EB7" opacity="1.000000" stroke="none" 
	d="
M471.153442,40.852051 
	C471.817596,40.563995 472.913361,40.390366 474.122437,40.502426 
	C473.352203,40.847565 472.468628,40.907021 471.153442,40.852051 
z"/>
<path fill="#AA9EB7" opacity="1.000000" stroke="none" 
	d="
M621.620728,70.020782 
	C621.646118,69.132751 621.979004,68.132858 622.648071,67.054947 
	C622.632324,67.954254 622.280212,68.931580 621.620728,70.020782 
z"/>
<path fill="#AA9EB7" opacity="1.000000" stroke="none" 
	d="
M398.747894,78.033745 
	C398.738617,77.157059 399.021118,76.148293 399.640961,75.054688 
	C399.665436,75.947121 399.352570,76.924393 398.747894,78.033745 
z"/>
<path fill="#AA9EB7" opacity="1.000000" stroke="none" 
	d="
M673.012573,107.602257 
	C672.204712,107.766556 671.348755,107.618095 670.242065,107.259323 
	C670.982361,107.129173 671.973511,107.209335 673.012573,107.602257 
z"/>
<path fill="#AA9EB7" opacity="1.000000" stroke="none" 
	d="
M496.149780,55.121788 
	C496.778442,55.310959 497.375336,55.838821 497.984467,56.684750 
	C497.370483,56.488701 496.744202,55.974594 496.149780,55.121788 
z"/>
<path fill="#AA9EB7" opacity="1.000000" stroke="none" 
	d="
M520.962708,189.437561 
	C521.568542,189.551559 522.225525,189.974136 522.911926,190.718735 
	C522.298889,190.609222 521.656311,190.177689 520.962708,189.437561 
z"/>
<path fill="#AA9EB7" opacity="1.000000" stroke="none" 
	d="
M509.282654,69.971527 
	C509.898438,70.226318 510.434875,70.819016 510.944702,71.728828 
	C510.346497,71.467102 509.774902,70.888268 509.282654,69.971527 
z"/>
<path fill="#AA9EB7" opacity="1.000000" stroke="none" 
	d="
M614.381958,97.964081 
	C614.426819,97.337837 614.799988,96.645142 615.467041,95.841164 
	C615.410767,96.452454 615.060547,97.175034 614.381958,97.964081 
z"/>
<path fill="#AA9EB7" opacity="1.000000" stroke="none" 
	d="
M368.200073,101.316429 
	C368.504974,100.792824 368.992249,100.464661 369.786499,100.145699 
	C369.523163,100.607224 368.952820,101.059547 368.200073,101.316429 
z"/>
<path fill="#AA9EB7" opacity="1.000000" stroke="none" 
	d="
M606.935303,209.473068 
	C607.465881,209.334717 608.039124,209.465302 608.802368,209.833649 
	C608.320923,209.961594 607.649475,209.851807 606.935303,209.473068 
z"/>
<path fill="#AA9EB7" opacity="1.000000" stroke="none" 
	d="
M363.020142,104.758865 
	C363.247894,104.139992 363.814148,103.572868 364.702820,103.025894 
	C364.469727,103.634247 363.914185,104.222427 363.020142,104.758865 
z"/>
<path fill="#AA9EB7" opacity="1.000000" stroke="none" 
	d="
M364.041260,108.510216 
	C363.462738,108.374420 362.825653,107.957611 362.226166,107.211472 
	C362.836761,107.331161 363.409729,107.780182 364.041260,108.510216 
z"/>
<path fill="#AA9EB7" opacity="1.000000" stroke="none" 
	d="
M674.242188,109.821960 
	C673.703613,109.512093 673.377380,109.028152 673.067993,108.241325 
	C673.541321,108.508247 673.997864,109.078064 674.242188,109.821960 
z"/>
<path fill="#AA9EB7" opacity="1.000000" stroke="none" 
	d="
M512.416443,117.971466 
	C512.432251,118.600777 512.141113,119.325966 511.546173,120.160568 
	C511.531433,119.535774 511.820435,118.801567 512.416443,117.971466 
z"/>
<path fill="#AA9EB7" opacity="1.000000" stroke="none" 
	d="
M734.297119,154.963821 
	C734.904968,155.231140 735.424072,155.834351 735.910645,156.750061 
	C735.321533,156.474930 734.764954,155.887314 734.297119,154.963821 
z"/>
<path fill="#AA9EB7" opacity="1.000000" stroke="none" 
	d="
M736.214355,159.025024 
	C736.804749,159.304443 737.320923,159.907669 737.766357,160.821671 
	C737.177124,160.537918 736.658569,159.943390 736.214355,159.025024 
z"/>
<path fill="#AA9EB7" opacity="1.000000" stroke="none" 
	d="
M518.946289,187.510986 
	C519.543640,187.624435 520.198669,188.033630 520.862671,188.765930 
	C520.249084,188.661621 519.626526,188.234177 518.946289,187.510986 
z"/>
<path fill="#AA9EB7" opacity="1.000000" stroke="none" 
	d="
M529.374023,138.654724 
	C529.652954,139.735214 529.788879,140.919235 529.665771,142.276855 
	C529.406616,142.450455 529.187622,142.211197 529.121582,141.720627 
	C529.032776,140.491180 529.009888,139.752304 528.987061,139.013428 
	C528.987061,139.013428 529.231018,138.758255 529.374023,138.654724 
z"/>
<path fill="#82699D" opacity="1.000000" stroke="none" 
	d="
M528.651001,138.993576 
	C529.009888,139.752304 529.032776,140.491180 529.015808,141.597778 
	C528.115051,141.315277 527.254089,140.665054 526.393127,140.014832 
	C527.033752,139.667786 527.674377,139.320755 528.651001,138.993576 
z"/>
</svg>